<svg data-v-423bf9ae="" xmlns="http://www.w3.org/2000/svg" viewBox="0 0 368 90" class="iconLeft"><!----><defs data-v-423bf9ae=""><linearGradient data-v-423bf9ae="" gradientTransform="rotate(25)" id="3d4f5f33-c238-4d15-af36-8fcda281a2e8" x1="0%" y1="0%" x2="100%" y2="0%"><stop data-v-423bf9ae="" offset="0%" style="stop-color: rgb(57, 94, 202); stop-opacity: 1;"></stop><stop data-v-423bf9ae="" offset="100%" style="stop-color: rgb(132, 139, 216); stop-opacity: 1;"></stop></linearGradient></defs><!----><g data-v-423bf9ae="" id="3695e4ee-189c-4370-a31b-d0c1167fab4a" fill="#ffffff" transform="matrix(5.917159557342529,0,0,5.917159557342529,106.03550720214844,-20.207101821899414)"><path d="M4.35 12.43C2.88 12.43 1.71 11.23 1.71 9.67C1.71 8.13 2.88 6.90 4.35 6.90C5.12 6.90 5.82 7.21 6.30 7.69C6.41 7.80 6.50 7.77 6.59 7.64L6.93 7.29C7.04 7.17 7.04 7.10 6.93 7C6.22 6.29 5.31 5.95 4.34 5.95C2.30 5.95 0.67 7.63 0.67 9.67C0.67 11.72 2.30 13.38 4.34 13.38C5.31 13.38 6.22 13.05 6.93 12.33C7.04 12.24 7.04 12.17 6.93 12.04L6.59 11.69C6.50 11.56 6.41 11.54 6.30 11.65C5.82 12.12 5.12 12.43 4.35 12.43ZM14.55 11.77C14.43 11.65 14.38 11.68 14.22 11.76C13.55 12.25 12.71 12.46 12.03 12.46C10.61 12.46 9.42 11.34 9.32 10.04L15.16 10.04C15.34 10.04 15.37 9.98 15.37 9.81C15.37 7.71 14.10 5.95 11.91 5.95C9.87 5.95 8.25 7.63 8.25 9.67C8.25 11.72 9.87 13.38 11.98 13.38C13.02 13.38 14.15 13.05 14.81 12.40C14.91 12.31 14.91 12.22 14.81 12.10ZM9.35 9.31C9.39 8.05 10.46 6.83 11.90 6.83C13.33 6.83 14.24 8.05 14.29 9.31ZM18.34 11.75C18.52 12.14 19.28 13.38 20.93 13.38C22.89 13.38 24.16 11.72 24.16 9.67C24.16 7.64 22.89 5.95 20.93 5.95C19.28 5.95 18.52 7.10 18.19 7.63L18.07 6.33C18.00 6.16 17.96 6.10 17.84 6.10L17.50 6.10C17.35 6.10 17.29 6.16 17.29 6.33L17.29 15.86C17.29 16.03 17.35 16.09 17.50 16.09L18.13 16.09C18.28 16.09 18.34 16.03 18.34 15.86ZM20.73 6.89C22.19 6.89 23.13 8.12 23.13 9.67C23.13 11.12 22.19 12.43 20.73 12.43C19.26 12.43 18.34 11.06 18.34 9.66C18.34 8.27 19.26 6.89 20.73 6.89ZM31.70 7.67C31.44 7 30.70 5.95 29.33 5.95C28 5.95 27.36 7.04 27.10 7.63L26.99 6.33C26.92 6.16 26.87 6.10 26.75 6.10L26.40 6.10C26.25 6.10 26.19 6.16 26.19 6.33L26.19 13.01C26.19 13.17 26.25 13.23 26.40 13.23L27.03 13.23C27.19 13.23 27.24 13.17 27.24 13.01L27.24 9.48C27.24 7.99 27.94 6.90 29.08 6.90C30.23 6.90 30.91 7.91 30.91 9.38L30.91 13.01C30.91 13.17 30.98 13.23 31.12 13.23L31.75 13.23C31.92 13.23 31.96 13.17 31.96 13.01L31.96 9.41C31.96 7.87 32.76 6.90 33.80 6.90C34.79 6.90 35.63 7.71 35.63 9.38L35.63 13.01C35.63 13.17 35.70 13.23 35.84 13.23L36.47 13.23C36.64 13.23 36.68 13.17 36.68 13.01L36.68 9.10C36.68 6.86 35.42 5.95 34.05 5.95C32.72 5.95 31.98 7.04 31.70 7.67ZM41.26 12.53C40.33 12.53 39.51 12.18 38.89 11.75C38.72 11.62 38.65 11.69 38.58 11.83L38.39 12.18C38.30 12.33 38.30 12.40 38.43 12.49C39.47 13.17 40.57 13.38 41.31 13.38C43.12 13.38 44.18 12.46 44.18 11.17C44.18 9.81 42.84 9.37 41.45 9.17C40.18 8.99 39.48 8.85 39.48 8.08C39.48 7.31 40.05 6.80 41.23 6.80C42.14 6.80 42.67 7.01 43.43 7.48C43.60 7.59 43.67 7.52 43.74 7.38L43.92 7.04C43.99 6.92 44.02 6.83 43.85 6.73C42.87 6.13 41.90 5.95 41.17 5.95C39.52 5.95 38.49 6.80 38.49 8.13C38.49 9.60 39.82 9.93 41.20 10.11C42.48 10.29 43.18 10.61 43.18 11.23C43.18 11.94 42.62 12.53 41.26 12.53Z"></path></g><!----><g data-v-423bf9ae="" id="f19cd424-a513-4d80-9342-569d80794e16" transform="matrix(2.8125,0,0,2.8125,0,0)" stroke="none" fill="#ffffff"><path d="M9.382 8.675h13.943v13.943L32 31.293V0H.707zM22.618 23.325H8.675V9.382L0 .707V32h31.293z"></path></g><!----></svg>